# xmcd
#
# Track frame offsets: 
#        150
#        12756
#        24099
#        36099
#        46936
#        70414
#        81041
#        94541
#        106478
#        120163
#        133901
#        143933
#        155456
#        167697
#        180405
#        194344
#        221645
#        233352
#        248253
#        261435
#        271798
#        285289
#        310617
#        322685
#
# Disc length: 4435 seconds
#
# Revision: 0
# Processed by: cddbd v1.5.1PL0 Copyright (c) Steve Scherf et al.
# Submitted via: ExactAudioCopy v0.95a2
#
DISCID=2a115118
DTITLE=Joe Houston - Rockin' At The Drive-In
DYEAR=2004
DGENRE=Swing
TTITLE0=Chicano Hop (Take 3)
TTITLE1=Joe's Hot House
TTITLE2=Rockin' At The Drive-In
TTITLE3=Bean Hop
TTITLE4=Shuckin' 'N' A Jivin' (Take 2)
TTITLE5=Houston Shuffle
TTITLE6=Stollin'
TTITLE7=Cha Cha All Night Long
TTITLE8=Chili
TTITLE9=Lucky Thirty
TTITLE10=Boom (Take 3)
TTITLE11=Shocking (Take 2)
TTITLE12=Baby Don't Go (Take 1)
TTITLE13=We're Gunna Rock 'N' Roll
TTITLE14=Curfew (Take 2)
TTITLE15=Joe's Blues
TTITLE16=Get With It
TTITLE17=Slip'n Out
TTITLE18=Home Boy
TTITLE19=Hush Your Mouth
TTITLE20=Things We Used To Do
TTITLE21=Deep Freeze
TTITLE22=Ko Ko Mo (I Love You So)
TTITLE23=Two Pizzaburgers Please!
EXTD=
EXTT0=
EXTT1=
EXTT2=
EXTT3=
EXTT4=
EXTT5=
EXTT6=
EXTT7=
EXTT8=
EXTT9=
EXTT10=
EXTT11=
EXTT12=
EXTT13=
EXTT14=
EXTT15=
EXTT16=
EXTT17=
EXTT18=
EXTT19=
EXTT20=
EXTT21=
EXTT22=
EXTT23=
PLAYORDER=
